%FSLAX23Y23*%
%MOMM*%
%AMPASTRA*
21,1,$5,$6,$1+$12,$2+$13,0*
21,1,$3,$4,$1+$12,$2+$13,0*
1,1,$7,$10+$12,$11+$13*
1,1,$7,$8+$12,$11+$13*
1,1,$7,$10+$12,$9+$13*
1,1,$7,$8+$12,$9+$13*%
%ADD10C,0.3*%
%ADD11C,1*%
%ADD12C,0.2*%
%ADD13C,1.8*%
%ADD14R,1.8X1.8*%
%ADD15PASTRA,0X0X1.8X0.6X0.6X1.8X1.2X-0.3X-0.3X0.3X0.3X0X0*%
%ADD16C,0.16*%
%ADD17R,2X0.5*%
%ADD18C,2.2*%
%ADD19C,1.6*%
%ADD20C,2*%
%ADD21C,1.5*%
%ADD22C,0.8*%
%ADD23C,0.24*%
%ADD24C,1*%
%ADD25C,0.05*%
%LPD*%
G54D11*
X45440Y12140D02*
X45440Y11440D01*
G54D11*
X45440Y12140D02*
X43940Y13640D01*
G54D11*
X45440Y5840D02*
X43840Y4240D01*
G54D11*
X45440Y6640D02*
X45440Y5840D01*
G54D11*
X45440Y15840D02*
X33040Y15840D01*
G54D12*
X45540Y15940D02*
X45440Y15840D01*
G54D11*
X13040Y1840D02*
X13040Y15840D01*
G54D11*
X13040Y1840D02*
X50240Y1840D01*
G54D11*
X50240Y1840D02*
X50240Y15840D01*
G54D11*
X50240Y15840D02*
X45440Y15840D01*
G54D11*
X43040Y14640D02*
X44240Y13440D01*
G54D11*
X43040Y14640D02*
X43040Y15940D01*
G54D11*
X45440Y2540D02*
X45440Y1840D01*
G54D11*
X43940Y4040D02*
X45440Y2540D01*
G54D11*
X42640Y12240D02*
X43840Y13440D01*
G54D11*
X43040Y5040D02*
X43840Y4240D01*
G54D12*
X42640Y5040D02*
X43040Y5040D01*
G54D11*
X22240Y24500D02*
X22240Y27040D01*
G54D12*
X22120Y24380D02*
X22240Y24500D01*
G54D11*
X13040Y27040D02*
X12640Y26640D01*
G54D11*
X22240Y27040D02*
X13040Y27040D01*
G54D12*
X12640Y16240D02*
X13040Y15840D01*
G54D11*
X12640Y26640D02*
X12640Y16240D01*
G54D12*
X26000Y23040D02*
X23440Y23040D01*
G54D12*
X27200Y21840D02*
X26000Y23040D01*
G54D12*
X23440Y23040D02*
X22240Y24240D01*
G54D11*
X22240Y27040D02*
X67440Y27040D01*
G54D11*
X32240Y24420D02*
X32240Y27040D01*
G54D12*
X32280Y24380D02*
X32240Y24420D01*
G54D11*
X39840Y24440D02*
X39840Y27040D01*
G54D12*
X39900Y24380D02*
X39840Y24440D01*
G54D12*
X46240Y23120D02*
X46240Y27040D01*
G54D12*
X47520Y21840D02*
X46240Y23120D01*
G54D11*
X52640Y24420D02*
X52640Y27040D01*
G54D12*
X52600Y24380D02*
X52640Y24420D01*
G54D11*
X57440Y24620D02*
X57440Y27040D01*
G54D12*
X57680Y24380D02*
X57440Y24620D01*
G54D11*
X67440Y23980D02*
X67440Y27040D01*
G54D11*
X65300Y21840D02*
X67440Y23980D01*
G54D10*
X20240Y18640D02*
X17040Y21840D01*
G54D10*
X30640Y18640D02*
X20240Y18640D01*
G54D11*
X49940Y13840D02*
X44240Y13840D01*
G54D12*
X50140Y13640D02*
X49940Y13840D01*
G54D10*
X35840Y11440D02*
X35840Y6640D01*
G54D10*
X25440Y13440D02*
X25440Y7840D01*
G54D11*
X33040Y10240D02*
X33040Y1840D01*
G54D12*
X23040Y15940D02*
X22940Y15840D01*
G54D11*
X22940Y15840D02*
X13040Y15840D01*
G54D11*
X23040Y15940D02*
X23140Y15840D01*
G54D11*
X23140Y15840D02*
X33040Y15840D01*
G54D13*
X17040Y24380D03*
G54D13*
X19580Y24380D03*
G54D13*
X22120Y24380D03*
G54D13*
X24660Y24380D03*
G54D13*
X27200Y24380D03*
G54D13*
X29740Y24380D03*
G54D13*
X32280Y24380D03*
G54D13*
X34820Y24380D03*
G54D13*
X37360Y24380D03*
G54D13*
X39900Y24380D03*
G54D13*
X42440Y24380D03*
G54D13*
X44980Y24380D03*
G54D13*
X47520Y24380D03*
G54D13*
X50060Y24380D03*
G54D13*
X52600Y24380D03*
G54D13*
X55140Y24380D03*
G54D13*
X57680Y24380D03*
G54D13*
X60220Y24380D03*
G54D13*
X62760Y24380D03*
G54D13*
X65300Y24380D03*
G54D14*
X17040Y21840D03*
G54D13*
X19580Y21840D03*
G54D13*
X22120Y21840D03*
G54D13*
X24660Y21840D03*
G54D13*
X27200Y21840D03*
G54D13*
X29740Y21840D03*
G54D13*
X32280Y21840D03*
G54D13*
X34820Y21840D03*
G54D13*
X37360Y21840D03*
G54D13*
X39900Y21840D03*
G54D13*
X42440Y21840D03*
G54D13*
X44980Y21840D03*
G54D13*
X47520Y21840D03*
G54D13*
X50060Y21840D03*
G54D13*
X52600Y21840D03*
G54D13*
X55140Y21840D03*
G54D13*
X57680Y21840D03*
G54D13*
X60220Y21840D03*
G54D13*
X62760Y21840D03*
G54D13*
X65300Y21840D03*
G54D18*
X43940Y4040D03*
G54D18*
X43940Y13640D03*
G54D20*
X43040Y15940D03*
G54D20*
X48040Y1740D03*
G54D20*
X38040Y1740D03*
G54D20*
X33040Y15940D03*
G54D20*
X28040Y1740D03*
G54D20*
X18040Y1740D03*
G54D20*
X23040Y15940D03*
G54D20*
X13040Y15840D03*
G54D20*
X33040Y4840D03*
G54D20*
X33040Y10240D03*
G54D20*
X13040Y7340D03*
G54D21*
X40540Y15940D03*
G54D21*
X45540Y15940D03*
G54D21*
X45540Y1740D03*
G54D21*
X40540Y1740D03*
G54D21*
X35840Y15940D03*
G54D21*
X50140Y13640D03*
G54D21*
X50140Y8840D03*
G54D21*
X50140Y4040D03*
G54D24*
X42640Y12240D03*
G54D24*
X42640Y5040D03*
G54D24*
X45440Y6640D03*
G54D24*
X45440Y11440D03*
G54D24*
X30640Y18640D03*
G54D24*
X35840Y11440D03*
G54D24*
X35840Y6640D03*
G54D24*
X25440Y7840D03*
G54D24*
X25440Y13440D03*
G54D25*
X10240Y28240D02*
X69040Y28240D01*
G54D25*
X69040Y-00160D02*
X69040Y28240D01*
G54D25*
X10240Y-00160D02*
X69040Y-00160D01*
G54D25*
X10240Y28240D02*
X10240Y-00160D01*
M02*
