%FSLAX23Y23*%
%MOMM*%
%AMPASTRA*
21,1,$5,$6,$1+$12,$2+$13,0*
21,1,$3,$4,$1+$12,$2+$13,0*
1,1,$7,$10+$12,$11+$13*
1,1,$7,$8+$12,$11+$13*
1,1,$7,$10+$12,$9+$13*
1,1,$7,$8+$12,$9+$13*%
%ADD10C,0.3*%
%ADD11C,1*%
%ADD12C,0.2*%
%ADD13C,1.8*%
%ADD14R,1.8X1.8*%
%ADD15PASTRA,0X0X1.8X0.6X0.6X1.8X1.2X-0.3X-0.3X0.3X0.3X0X0*%
%ADD16C,0.16*%
%ADD17R,2X0.5*%
%ADD18C,2.2*%
%ADD19C,1.6*%
%ADD20C,2*%
%ADD21C,1.5*%
%ADD22C,0.8*%
%ADD23C,0.24*%
%ADD24C,1*%
%ADD25C,0.05*%
%LPD*%
G54D10*
X42640Y12240D02*
X39840Y12240D01*
G54D10*
X38240Y9840D02*
X37040Y8640D01*
G54D10*
X38240Y9840D02*
X39840Y9840D01*
G54D10*
X37040Y8640D02*
X32640Y8640D01*
G54D10*
X38240Y9040D02*
X37040Y7840D01*
G54D10*
X38240Y9040D02*
X39840Y9040D01*
G54D10*
X38240Y8240D02*
X39840Y8240D01*
G54D10*
X42640Y5040D02*
X39840Y5040D01*
G54D10*
X46640Y7840D02*
X45440Y6640D01*
G54D10*
X46640Y7840D02*
X48040Y7840D01*
G54D10*
X46640Y5440D02*
X45440Y6640D01*
G54D10*
X46640Y5440D02*
X48040Y5440D01*
G54D10*
X46640Y12640D02*
X45440Y11440D01*
G54D10*
X46640Y12640D02*
X48040Y12640D01*
G54D10*
X46640Y10240D02*
X45440Y11440D01*
G54D10*
X46640Y10240D02*
X48040Y10240D01*
G54D10*
X46640Y9440D02*
X46240Y9040D01*
G54D10*
X46640Y9440D02*
X48040Y9440D01*
G54D10*
X46640Y8640D02*
X47840Y8640D01*
G54D10*
X46240Y9040D02*
X46640Y8640D01*
G54D10*
X17040Y21840D02*
X17040Y18640D01*
G54D10*
X20640Y20780D02*
X20640Y18640D01*
G54D10*
X19580Y21840D02*
X20640Y20780D01*
G54D10*
X20640Y18640D02*
X20640Y13440D01*
G54D12*
X25320Y18640D02*
X25440Y18640D01*
G54D10*
X22120Y21840D02*
X25320Y18640D01*
G54D10*
X25440Y18640D02*
X25440Y13440D01*
G54D12*
X29040Y18640D02*
X30640Y18640D01*
G54D10*
X38640Y18640D02*
X38640Y20560D01*
G54D10*
X37360Y21840D02*
X38640Y20560D01*
G54D10*
X38640Y18640D02*
X40640Y19040D01*
G54D10*
X49040Y9440D02*
X49840Y10240D01*
G54D10*
X48040Y9440D02*
X49040Y9440D01*
G54D10*
X51440Y10240D02*
X53040Y9840D01*
G54D10*
X49840Y10240D02*
X51440Y10240D01*
G54D12*
X50740Y13840D02*
X53040Y13840D01*
G54D12*
X50140Y13640D02*
X50740Y13840D01*
G54D10*
X34640Y18030D02*
X34640Y13440D01*
G54D10*
X34830Y18640D02*
X34640Y18030D01*
G54D10*
X34640Y13440D02*
X35840Y12240D01*
G54D10*
X35840Y12240D02*
X35840Y11440D01*
G54D10*
X36640Y6640D02*
X35840Y6640D01*
G54D10*
X38240Y8240D02*
X36640Y6640D01*
G54D10*
X37040Y7840D02*
X25440Y7840D01*
G54D10*
X28240Y8640D02*
X27440Y9440D01*
G54D10*
X32640Y8640D02*
X28240Y8640D01*
G54D10*
X21040Y9440D02*
X20640Y9840D01*
G54D10*
X27440Y9440D02*
X21040Y9440D01*
G54D10*
X20640Y9840D02*
X20640Y13440D01*
G54D10*
X55040Y19040D02*
X55440Y18640D01*
G54D10*
X55040Y19040D02*
X40640Y19040D01*
G54D10*
X55440Y11040D02*
X54640Y10240D01*
G54D10*
X55440Y18640D02*
X55440Y11040D01*
G54D10*
X54640Y10240D02*
X53040Y10240D01*
G54D10*
X26260Y20240D02*
X33040Y20240D01*
G54D10*
X33040Y20240D02*
X34640Y18640D01*
G54D10*
X24660Y21840D02*
X26260Y20240D01*
G54D13*
X17040Y24380D03*
G54D13*
X19580Y24380D03*
G54D13*
X22120Y24380D03*
G54D13*
X24660Y24380D03*
G54D13*
X27200Y24380D03*
G54D13*
X29740Y24380D03*
G54D13*
X32280Y24380D03*
G54D13*
X34820Y24380D03*
G54D13*
X37360Y24380D03*
G54D13*
X39900Y24380D03*
G54D13*
X42440Y24380D03*
G54D13*
X44980Y24380D03*
G54D13*
X47520Y24380D03*
G54D13*
X50060Y24380D03*
G54D13*
X52600Y24380D03*
G54D13*
X55140Y24380D03*
G54D13*
X57680Y24380D03*
G54D13*
X60220Y24380D03*
G54D13*
X62760Y24380D03*
G54D13*
X65300Y24380D03*
G54D14*
X17040Y21840D03*
G54D13*
X19580Y21840D03*
G54D13*
X22120Y21840D03*
G54D13*
X24660Y21840D03*
G54D13*
X27200Y21840D03*
G54D13*
X29740Y21840D03*
G54D13*
X32280Y21840D03*
G54D13*
X34820Y21840D03*
G54D13*
X37360Y21840D03*
G54D13*
X39900Y21840D03*
G54D13*
X42440Y21840D03*
G54D13*
X44980Y21840D03*
G54D13*
X47520Y21840D03*
G54D13*
X50060Y21840D03*
G54D13*
X52600Y21840D03*
G54D13*
X55140Y21840D03*
G54D13*
X57680Y21840D03*
G54D13*
X60220Y21840D03*
G54D13*
X62760Y21840D03*
G54D13*
X65300Y21840D03*
G54D15*
X53040Y13840D03*
G54D15*
X53040Y10030D03*
G54D15*
X38640Y18640D03*
G54D15*
X34830Y18640D03*
G54D15*
X29040Y18640D03*
G54D15*
X25230Y18640D03*
G54D15*
X20640Y18640D03*
G54D15*
X16830Y18640D03*
G54D17*
X48040Y5440D03*
G54D17*
X48040Y6240D03*
G54D17*
X48040Y7040D03*
G54D17*
X48040Y7840D03*
G54D17*
X48040Y8640D03*
G54D17*
X48040Y9440D03*
G54D17*
X48040Y10240D03*
G54D17*
X48040Y11040D03*
G54D17*
X48040Y11840D03*
G54D17*
X48040Y12640D03*
G54D17*
X39840Y5040D03*
G54D17*
X39840Y5840D03*
G54D17*
X39840Y6640D03*
G54D17*
X39840Y7440D03*
G54D17*
X39840Y8240D03*
G54D17*
X39840Y9040D03*
G54D17*
X39840Y9840D03*
G54D17*
X39840Y10640D03*
G54D17*
X39840Y11440D03*
G54D17*
X39840Y12240D03*
G54D18*
X43940Y4040D03*
G54D18*
X43940Y13640D03*
G54D20*
X43040Y15940D03*
G54D20*
X48040Y1740D03*
G54D20*
X38040Y1740D03*
G54D20*
X33040Y15940D03*
G54D20*
X28040Y1740D03*
G54D20*
X18040Y1740D03*
G54D20*
X23040Y15940D03*
G54D20*
X13040Y15840D03*
G54D20*
X33040Y4840D03*
G54D20*
X33040Y10240D03*
G54D20*
X13040Y7340D03*
G54D21*
X40540Y15940D03*
G54D21*
X45540Y15940D03*
G54D21*
X45540Y1740D03*
G54D21*
X40540Y1740D03*
G54D21*
X35840Y15940D03*
G54D21*
X50140Y13640D03*
G54D21*
X50140Y8840D03*
G54D21*
X50140Y4040D03*
G54D24*
X42640Y12240D03*
G54D24*
X42640Y5040D03*
G54D24*
X45440Y6640D03*
G54D24*
X45440Y11440D03*
G54D24*
X30640Y18640D03*
G54D24*
X35840Y11440D03*
G54D24*
X35840Y6640D03*
G54D24*
X25440Y7840D03*
G54D24*
X25440Y13440D03*
G54D25*
X10240Y28240D02*
X69040Y28240D01*
G54D25*
X69040Y-00160D02*
X69040Y28240D01*
G54D25*
X10240Y-00160D02*
X69040Y-00160D01*
G54D25*
X10240Y28240D02*
X10240Y-00160D01*
M02*
